<?xml version="1.0" standalone="no"?>
<!DOCTYPE svg PUBLIC "-//W3C//DTD SVG 20010904//EN"
 "http://www.w3.org/TR/2001/REC-SVG-20010904/DTD/svg10.dtd">
<svg version="1.0" xmlns="http://www.w3.org/2000/svg"
 width="479.000000pt" height="72.000000pt" viewBox="0 0 479.000000 72.000000"
 preserveAspectRatio="xMidYMid meet">
<metadata>
Created by potrace 1.15, written by Peter Selinger 2001-2017
</metadata>
<g transform="translate(0.000000,72.000000) scale(0.100000,-0.100000)"
fill="#000000" stroke="none">
<path d="M1136 662 c-3 -5 -8 -32 -12 -60 -4 -33 -11 -52 -20 -52 -15 0 -45
-40 -38 -51 2 -5 15 -4 28 1 l23 8 5 -159 c6 -164 14 -198 42 -169 11 12 12
33 6 105 -5 50 -9 120 -9 158 -1 67 -1 67 27 67 38 0 67 22 59 44 -5 13 -16
17 -44 14 l-38 -3 -3 53 c-3 47 -13 65 -26 44z"/>
<path d="M3132 658 c-8 -8 -12 -57 -12 -153 0 -135 -1 -141 -22 -150 -13 -6
-26 -24 -31 -44 -17 -69 -53 -99 -103 -87 -27 7 -49 44 -57 101 -9 60 1 69 67
61 49 -5 56 -4 66 14 24 45 -19 140 -64 140 -48 0 -105 -76 -106 -142 0 -15
-4 -30 -10 -33 -6 -4 -10 6 -10 23 0 63 -55 142 -99 142 -9 0 -31 -9 -49 -20
-40 -25 -38 -25 -45 1 -3 12 -10 18 -16 14 -7 -4 -11 -93 -11 -266 0 -224 2
-259 15 -259 12 0 15 18 15 105 0 58 4 105 8 105 5 0 17 -9 27 -20 37 -41 103
-14 139 57 9 18 16 42 16 55 1 32 15 5 24 -44 9 -48 55 -88 101 -88 43 0 88
37 120 99 l24 46 1 -60 c0 -69 10 -91 35 -81 15 6 17 15 11 68 -3 33 -6 144
-6 244 0 101 -4 184 -8 184 -4 0 -13 -5 -20 -12z m-340 -228 c11 -21 18 -58
18 -92 0 -50 -4 -62 -29 -90 -25 -27 -33 -31 -48 -22 -26 15 -53 74 -59 131
-6 43 -3 53 21 81 37 44 73 41 97 -8z"/>
<path d="M3853 643 c-4 -15 -8 -124 -8 -240 1 -220 7 -256 39 -223 11 12 12
35 5 115 -5 55 -8 161 -8 235 1 87 -3 136 -10 138 -5 2 -14 -9 -18 -25z"/>
<path d="M2147 653 c-4 -3 -7 -56 -7 -116 l0 -110 -23 34 c-12 19 -35 38 -49
43 -106 37 -168 -237 -71 -314 31 -24 73 -26 113 -5 28 15 30 14 30 -5 0 -32
27 -23 34 11 13 69 2 469 -14 469 -4 0 -10 -3 -13 -7z m-50 -253 c13 -25 26
-68 29 -96 6 -50 6 -51 -28 -67 -19 -9 -44 -14 -56 -10 -48 12 -68 115 -37
189 12 30 19 35 42 32 21 -2 32 -14 50 -48z"/>
<path d="M480 634 c-27 -31 -26 -442 0 -484 7 -12 12 -12 27 3 14 12 51 19
137 26 118 9 141 18 129 48 -4 11 -30 12 -134 7 l-129 -7 0 91 0 90 31 7 c16
4 56 5 87 3 55 -3 57 -2 57 22 0 25 -1 25 -92 28 l-93 3 0 44 0 45 104 0 c108
0 136 10 122 45 -4 12 -26 15 -107 15 -82 0 -104 3 -113 16 -11 14 -13 14 -26
-2z"/>
<path d="M853 518 c-11 -13 -26 -40 -33 -61 -10 -32 -9 -42 4 -61 12 -19 27
-25 78 -31 73 -8 88 -18 88 -54 0 -35 -22 -65 -60 -81 -39 -16 -73 5 -90 55
-13 39 -33 42 -38 6 -5 -35 5 -63 33 -93 67 -72 195 9 195 123 0 40 -4 51 -31
73 -23 19 -42 26 -74 26 -56 0 -75 8 -75 30 0 37 47 49 102 26 21 -10 35 29
18 49 -20 24 -93 19 -117 -7z"/>
<path d="M1331 518 c-61 -56 -92 -226 -54 -297 10 -19 26 -39 35 -45 27 -16
68 14 89 65 13 32 18 38 18 21 1 -37 29 -92 46 -92 22 0 31 29 16 52 -7 11
-16 74 -20 141 -7 118 -8 120 -39 148 -39 35 -60 36 -91 7z m61 -45 c13 -16
13 -28 1 -98 -14 -81 -40 -150 -58 -150 -5 0 -16 17 -24 39 -12 32 -13 50 -3
106 19 114 46 146 84 103z"/>
<path d="M1522 527 c-17 -21 -3 -347 15 -354 23 -9 28 5 33 105 6 102 27 165
63 186 35 21 61 -49 74 -202 6 -74 21 -98 45 -74 15 15 -16 244 -40 290 -27
54 -70 56 -118 8 -20 -20 -38 -36 -40 -36 -2 0 -4 20 -4 45 0 46 -9 56 -28 32z"/>
<path d="M2263 525 c-32 -23 -63 -115 -63 -188 0 -70 26 -139 58 -156 57 -31
128 4 166 81 31 61 33 88 8 88 -12 0 -23 -16 -35 -50 -43 -122 -144 -98 -155
36 l-5 57 61 -5 c69 -7 82 1 82 49 0 83 -60 128 -117 88z"/>
<path d="M3411 523 c-57 -41 -106 -163 -99 -251 6 -69 38 -102 97 -102 65 0
164 91 133 122 -9 9 -17 5 -33 -15 -24 -31 -69 -57 -99 -57 -70 0 -81 127 -17
220 36 54 52 59 86 26 25 -24 33 -27 46 -16 22 18 19 28 -16 61 -35 32 -63 36
-98 12z"/>
<path d="M3993 522 c-44 -34 -68 -108 -68 -209 0 -83 2 -94 24 -117 41 -44 77
-29 110 45 15 33 20 38 20 21 1 -37 29 -92 46 -92 22 0 31 29 16 53 -7 11 -17
74 -21 141 -9 118 -10 122 -40 149 -35 31 -56 34 -87 9z m53 -46 c18 -19 18
-50 -2 -139 -19 -84 -29 -107 -49 -107 -38 0 -43 134 -9 220 17 42 36 50 60
26z"/>
<path d="M3203 518 c-11 -19 -16 -223 -6 -288 7 -45 12 -55 28 -55 19 0 20 5
15 90 -3 50 -5 129 -5 178 0 61 -4 87 -12 87 -6 0 -15 -6 -20 -12z"/>
<path d="M3571 506 c-10 -11 -9 -39 3 -128 17 -134 39 -196 71 -204 28 -7 80
19 95 46 17 32 30 23 30 -20 0 -28 4 -40 14 -40 8 0 18 4 21 10 3 5 3 86 -1
180 -6 156 -9 170 -26 170 -10 0 -18 -1 -19 -2 0 -2 -2 -37 -5 -78 -6 -98 -21
-164 -46 -195 -45 -58 -72 -11 -91 157 -12 110 -22 133 -46 104z"/>
</g>
</svg>
