<?xml version="1.0" standalone="no"?>
<!DOCTYPE svg PUBLIC "-//W3C//DTD SVG 20010904//EN"
 "http://www.w3.org/TR/2001/REC-SVG-20010904/DTD/svg10.dtd">
<svg version="1.0" xmlns="http://www.w3.org/2000/svg"
 width="232.000000pt" height="157.000000pt" viewBox="0 0 232.000000 157.000000"
 preserveAspectRatio="xMidYMid meet">
<metadata>
Created by potrace 1.15, written by Peter Selinger 2001-2017
</metadata>
<g transform="translate(0.000000,157.000000) scale(0.100000,-0.100000)"
fill="#000000" stroke="none">
<path d="M1516 1185 c4 -10 0 -15 -14 -15 -14 0 -22 -8 -24 -22 -2 -19 -9 -23
-35 -23 -24 0 -33 -4 -33 -16 0 -9 -15 -23 -32 -30 l-33 -14 40 -7 c22 -4 93
-7 158 -7 93 -1 117 2 117 13 0 15 -45 30 -61 20 -12 -7 -59 15 -59 28 0 5 11
6 25 2 24 -6 25 -4 23 27 -2 45 -14 59 -49 59 -21 0 -27 -4 -23 -15z"/>
<path d="M1775 1004 c-35 -18 -45 -31 -45 -60 0 -16 -8 -23 -27 -27 -35 -6
-37 -4 -24 21 10 19 8 20 -19 15 -39 -6 -97 -30 -105 -43 -3 -5 -18 -10 -32
-10 -16 0 -37 -12 -57 -35 -18 -19 -40 -35 -49 -35 -9 0 -19 -4 -22 -10 -4 -6
-21 -2 -45 10 -53 27 -58 25 -21 -9 34 -32 39 -52 17 -70 -11 -10 -20 -10 -37
0 -17 9 -24 9 -27 0 -2 -6 -25 -20 -51 -31 -25 -11 -58 -35 -73 -53 l-26 -33
100 -13 c118 -15 211 -41 261 -75 32 -22 42 -24 88 -17 47 8 55 6 76 -15 13
-13 23 -30 23 -39 0 -14 10 -15 73 -9 39 3 91 10 114 14 22 4 134 5 247 3
l206 -4 -1 130 c0 126 -1 129 -21 123 -15 -3 -19 -1 -16 9 3 8 12 13 22 11 13
-2 16 7 16 53 0 52 -1 55 -19 45 -11 -5 -31 -10 -46 -10 -17 0 -37 -12 -56
-32 l-29 -32 0 26 c0 14 -9 47 -19 72 -16 35 -29 49 -58 61 -21 9 -49 27 -63
40 -21 20 -37 25 -88 26 -34 1 -65 6 -68 11 -8 13 -67 9 -99 -8z"/>
<path d="M182 506 c13 -41 23 -46 31 -14 4 12 9 19 13 15 4 -3 -1 -18 -10 -31
-21 -33 -20 -63 3 -75 10 -6 21 -23 24 -38 13 -69 27 -108 42 -119 13 -10 15
-22 10 -58 -7 -42 -5 -49 21 -73 15 -14 51 -32 78 -39 28 -7 85 -23 126 -34
123 -34 600 -42 600 -9 0 5 -7 9 -16 9 -10 0 -6 7 13 23 38 30 70 47 88 47 8
0 31 16 50 36 27 27 47 37 78 41 23 2 49 7 57 10 8 4 18 5 23 5 4 -1 7 4 7 12
0 8 6 17 13 19 6 3 2 6 -10 6 -13 1 -23 -4 -23 -9 0 -6 -18 -10 -44 -8 -55 4
-45 21 23 42 48 15 110 39 149 58 15 8 18 14 11 19 -6 4 -8 12 -5 18 10 15 29
14 20 -1 -4 -7 3 -3 15 9 28 29 27 37 -4 29 -14 -4 -25 -2 -25 3 0 4 -13 11
-29 14 -18 4 -32 14 -36 27 -3 11 -10 20 -15 20 -5 0 -2 -17 7 -37 15 -38 15
-38 -5 -20 -11 10 -29 17 -40 15 -10 -2 -26 3 -35 11 -15 12 -17 11 -17 -8 0
-12 -5 -19 -10 -16 -6 3 -10 1 -10 -4 0 -6 -4 -11 -10 -11 -5 0 -10 7 -10 16
0 11 -6 13 -19 9 -11 -3 -22 -2 -25 4 -6 9 -33 6 -66 -6 -8 -3 -21 -7 -28 -9
-8 -1 -16 -5 -19 -8 -9 -8 18 -37 28 -30 5 3 6 -1 4 -9 -8 -19 35 -64 68 -72
15 -4 30 -11 33 -16 3 -5 -2 -6 -11 -3 -9 4 -21 -1 -28 -10 -12 -16 -14 -16
-31 3 -25 27 -60 27 -85 -1 -17 -17 -23 -19 -36 -8 -8 7 -22 10 -30 6 -9 -3
-15 0 -15 8 0 8 7 16 15 20 12 4 13 9 4 24 -15 23 -55 26 -68 5 -7 -13 -22
-16 -67 -15 -44 2 -55 0 -44 -8 12 -8 10 -10 -10 -6 -75 14 -100 16 -100 7 0
-21 -61 -22 -128 -2 -114 34 -136 38 -171 33 -25 -3 -36 0 -43 12 -8 14 -13
15 -24 5 -8 -6 -17 -9 -21 -6 -3 4 -14 2 -25 -4 -14 -7 -23 -7 -34 2 -11 9
-17 9 -29 -1 -13 -11 -15 -8 -15 21 l0 32 -25 -23 -25 -23 0 36 c0 27 4 37 16
37 10 0 14 6 10 15 -3 8 0 15 7 15 7 0 3 7 -7 15 -11 8 -16 18 -12 22 4 4 11
1 15 -6 6 -10 10 -10 16 -2 14 24 -27 47 -95 53 -8 0 -20 5 -27 10 -9 7 -9 1
-1 -26z"/>
<path d="M1716 206 c-9 -30 -16 -61 -16 -70 0 -8 -7 -19 -15 -24 -9 -5 -18
-29 -22 -60 l-6 -52 332 0 331 0 0 30 0 30 -62 -5 -63 -5 40 14 c27 9 33 15
20 16 -11 1 -1 6 23 12 46 10 54 22 21 31 -12 3 -18 10 -14 16 4 7 -1 8 -17 3
-27 -10 -58 -5 -58 9 0 5 12 9 28 10 26 0 26 1 5 11 -25 12 -58 4 -48 -12 3
-5 0 -10 -7 -10 -7 0 -89 -9 -182 -20 -279 -34 -273 -34 -273 -5 0 21 5 25 46
31 25 3 62 10 81 14 29 7 24 8 -35 9 -67 1 -69 2 -43 15 15 8 35 17 45 20 10
2 -7 2 -38 -1 -57 -5 -57 -5 -52 21 9 46 -5 28 -21 -28z"/>
<path d="M0 18 c0 -17 16 -18 323 -17 315 1 320 2 227 15 -52 8 -197 15 -322
17 -216 3 -228 3 -228 -15z"/>
</g>
</svg>
